<?xml version="1.0" encoding="iso-8859-1"?>
<!-- Generator: Adobe Illustrator 19.0.0, SVG Export Plug-In . SVG Version: 6.00 Build 0)  -->
<svg xmlns="http://www.w3.org/2000/svg" xmlns:xlink="http://www.w3.org/1999/xlink" version="1.1" id="Layer_1" x="0px" y="0px" viewBox="0 0 512 512" style="enable-background:new 0 0 512 512;" xml:space="preserve" width="512" height="512">
<g>
	
		<rect x="177.459" y="330.998" transform="matrix(0.4472 0.8944 -0.8944 0.4472 426.1097 2.54)" style="fill:#DEECF1;" width="67.082" height="30.003"/>
	
		<rect x="285.998" y="312.459" transform="matrix(0.8944 0.4472 -0.4472 0.8944 186.5133 -98.0831)" style="fill:#C5D3DD;" width="30.003" height="67.082"/>
	<polygon style="fill:#DEECF1;" points="331,421 314.801,451 297.4,421 276.7,391 235.3,391 214.6,421 198.999,451 181,421    216.7,361 295.3,361  "/>
	<polygon style="fill:#C5D3DD;" points="295.3,361 331,421 314.801,451 297.4,421 276.7,391 256,391 256,361  "/>
	<polygon style="fill:#DEECF1;" points="182.084,321.61 116.767,159.789 144.599,148.568 209.916,310.39  "/>
	
		<rect x="333.028" y="147.776" transform="matrix(0.9301 0.3673 -0.3673 0.9301 110.6342 -111.4182)" style="fill:#C5D3DD;" width="29.987" height="174.319"/>
	<rect x="241" y="139.3" style="fill:#DEECF1;" width="30" height="176.7"/>
	<rect x="256" y="139.3" style="fill:#C5D3DD;" width="15" height="176.7"/>
	<g>
		<polygon style="fill:#DEECF1;" points="512,205 320.501,331 191.499,331 0,205 14.399,183.1 32.701,189.699 200.501,301     311.499,301 479.001,190 493.7,181.3   "/>
	</g>
	<polygon style="fill:#C5D3DD;" points="320.501,331 256,331 256,301 311.499,301 479.001,190 493.7,181.3 512,205  "/>
	<rect x="241" y="15" width="30" height="124.34"/>
	<path d="M391,152.919h-30V136c0-57.891-47.109-106-105-106S151,78.109,151,136v16.919h-30V136C121,61.557,181.557,0,256,0   s135,61.557,135,136V152.919z"/>
	<path style="fill:#F03800;" d="M256,0h-45.835C94.986,0,0,80.655,0,196v9c16.436-8.249,15.533-8.47,32.692-15.229   c28.345-11.168,58.579-18.95,88.308-24.401V136C121,61.441,181.441,0,256,0z"/>
	<path style="fill:#AE2538;" d="M301.835,0H256l135,165.832c29.716,5.51,59.896,13.239,88.129,24.06   C493.733,195.491,492.148,195.11,512,205v-9C512,79.367,415.597,0,301.835,0z"/>
	<rect x="181" y="421" style="fill:#FF641A;" width="150" height="91"/>
	<rect x="256" y="421" style="fill:#F03800;" width="75" height="91"/>
	<path style="fill:#FF641A;" d="M391,136v29.7c-44.099-8.101-89.399-11.1-135-11.1c-45.3-0.3-90.901,2.699-135,10.8V136   C121,61.3,181.3,0,256,0S391,61.3,391,136z"/>
	<path style="fill:#F03800;" d="M391,165.7c-44.099-8.101-89.399-11.1-135-11.1V0c74.7,0,135,61.3,135,136V165.7z"/>
</g>















</svg>
