<svg width="138" height="138" viewBox="0 0 138 138" fill="none" xmlns="http://www.w3.org/2000/svg">
<path d="M42.1991 57.9887L68.9997 31.188L95.813 58.0003L111.407 42.4063L68.9997 0L26.6063 42.3936L42.1997 57.9876L42.1991 57.9887ZM0 69L15.5945 53.4032L31.1879 68.9967L15.5934 84.5912L0 69ZM42.1991 80.013L68.9997 106.812L95.8125 80.0003L111.415 95.586L111.407 95.5943L68.9997 138L26.6063 95.6064L26.5842 95.5843L42.2008 80.0113L42.1991 80.013ZM106.812 69.0066L122.406 53.4121L137.999 69.0055L122.406 84.6001L106.812 69.0066Z" fill="white" fill-opacity="0.6"/>
<path d="M84.8156 68.9917H84.8222L68.9998 53.1681L57.3046 64.86L55.961 66.2041L53.19 68.9757L53.1679 68.9972L53.19 69.0199L68.9998 84.8319L84.8233 69.0083L84.8311 68.9995L84.8167 68.9917" fill="white" fill-opacity="0.6"/>
</svg>
